<svg width="144" height="144" viewBox="0 0 144 144" fill="none" xmlns="http://www.w3.org/2000/svg">
<path d="M48.1645 115.949C48.1645 116.544 47.4968 117.021 46.6548 117.021C45.6968 117.11 45.029 116.633 45.029 115.949C45.029 115.353 45.6968 114.877 46.5387 114.877C47.4097 114.787 48.1645 115.264 48.1645 115.949ZM39.1355 114.609C38.9323 115.204 39.5129 115.889 40.3839 116.068C41.1387 116.365 42.0097 116.068 42.1839 115.472C42.3581 114.877 41.8064 114.192 40.9355 113.924C40.1806 113.715 39.3387 114.013 39.1355 114.609ZM51.9677 114.102C51.1258 114.311 50.5452 114.877 50.6323 115.561C50.7194 116.157 51.4742 116.544 52.3452 116.336C53.1871 116.127 53.7677 115.561 53.6806 114.966C53.5935 114.4 52.8097 114.013 51.9677 114.102ZM71.071 0C30.8032 0 0 31.3544 0 72.654C0 105.676 20.2645 133.933 49.2097 143.879C52.9258 144.564 54.2323 142.211 54.2323 140.276C54.2323 138.43 54.1452 128.246 54.1452 121.993C54.1452 121.993 33.8226 126.46 29.5548 113.12C29.5548 113.12 26.2452 104.455 21.4839 102.222C21.4839 102.222 14.8355 97.5469 21.9484 97.6362C21.9484 97.6362 29.1774 98.2317 33.1548 105.318C39.5129 116.812 50.1677 113.507 54.3194 111.542C54.9871 106.778 56.8742 103.472 58.9645 101.507C42.7355 99.661 26.3613 97.2491 26.3613 68.6044C26.3613 60.4159 28.5677 56.3068 33.2129 51.0662C32.4581 49.1308 29.9903 41.1507 33.9677 30.8482C40.0355 28.9127 54 38.8877 54 38.8877C59.8064 37.2203 66.0484 36.3568 72.2323 36.3568C78.4161 36.3568 84.6581 37.2203 90.4645 38.8877C90.4645 38.8877 104.429 28.8829 110.497 30.8482C114.474 41.1805 112.006 49.1308 111.252 51.0662C115.897 56.3366 118.742 60.4457 118.742 68.6044C118.742 97.3384 101.642 99.6312 85.4129 101.507C88.0839 103.859 90.3484 108.326 90.3484 115.323C90.3484 125.358 90.2613 137.775 90.2613 140.216C90.2613 142.152 91.5968 144.504 95.2839 143.819C124.316 133.933 144 105.676 144 72.654C144 31.3544 111.339 0 71.071 0ZM28.2194 102.698C27.8419 102.996 27.929 103.681 28.4226 104.247C28.8871 104.723 29.5548 104.931 29.9323 104.544C30.3097 104.247 30.2226 103.562 29.729 102.996C29.2645 102.52 28.5968 102.311 28.2194 102.698ZM25.0839 100.286C24.8806 100.673 25.171 101.15 25.7516 101.448C26.2161 101.745 26.7968 101.656 27 101.239C27.2032 100.852 26.9129 100.376 26.3323 100.078C25.7516 99.8992 25.2871 99.9885 25.0839 100.286ZM34.4903 110.887C34.0258 111.274 34.2 112.167 34.8677 112.733C35.5355 113.418 36.3774 113.507 36.7548 113.031C37.1323 112.643 36.9581 111.75 36.3774 111.184C35.7387 110.5 34.8677 110.41 34.4903 110.887ZM31.1806 106.51C30.7161 106.807 30.7161 107.581 31.1806 108.266C31.6452 108.951 32.429 109.249 32.8064 108.951C33.271 108.564 33.271 107.79 32.8064 107.105C32.4 106.42 31.6452 106.122 31.1806 106.51Z" fill="white"/>
</svg>
