<svg width="144" height="144" viewBox="0 0 144 144" fill="none" xmlns="http://www.w3.org/2000/svg">
<path d="M133.714 0H10.2536C4.59643 0 0 4.66072 0 10.3821V133.618C0 139.339 4.59643 144 10.2536 144H133.714C139.371 144 144 139.339 144 133.618V10.3821C144 4.66072 139.371 0 133.714 0ZM43.5214 123.429H22.1786V54.7071H43.5536V123.429H43.5214ZM32.85 20.5714C39.6964 20.5714 45.225 26.1 45.225 32.9464C45.225 39.7929 39.6964 45.3214 32.85 45.3214C26.0036 45.3214 20.475 39.7929 20.475 32.9464C20.475 26.1 26.0036 20.5714 32.85 20.5714ZM123.525 123.429H102.182V90C102.182 82.0286 102.021 71.775 91.0929 71.775C79.9714 71.775 78.2679 80.4536 78.2679 89.4214V123.429H56.925V54.7071H77.4V64.0929H77.6893C80.55 58.6929 87.525 53.0036 97.9071 53.0036C119.507 53.0036 123.525 67.2429 123.525 85.7571V123.429Z" fill="white"/>
</svg>
