<svg width="145" height="101" viewBox="0 0 145 101" fill="none" xmlns="http://www.w3.org/2000/svg">
<path d="M67.6918 11.9911L38.3394 41.2024C37.1814 42.3519 37.2318 44.1326 38.4653 45.237C46.1432 52.1116 58.6042 52.1116 66.2821 45.237L74.2873 38.0694C75.3446 37.1227 76.6788 36.6043 78.0382 36.5142C79.75 36.3789 81.5122 36.8973 82.8212 38.0694L127.278 77.5363L145 64.9141V0L116.806 14.4254L110.814 10.8416C106.837 8.4749 102.18 7.21268 97.3967 7.21268H79.6745C79.3976 7.21268 79.0955 7.21268 78.8186 7.23522C74.5642 7.43807 70.5616 9.15108 67.6918 11.9911ZM29.3524 33.9672L56.2378 7.21268H46.2691C39.8498 7.21268 33.7075 9.48918 29.1762 13.5463L28.1944 14.4254L0 0V64.9141L39.3715 94.2832C45.1615 98.6108 52.4618 100.977 59.9887 100.977H63.941L62.1788 99.3997C59.8125 97.281 59.8125 93.8549 62.1788 91.7588C64.5451 89.6626 68.3715 89.64 70.7127 91.7588L81.0339 101H83.2995C88.1076 101 92.8151 100.031 97.0946 98.2276L90.3733 92.187C88.0069 90.0683 88.0069 86.6423 90.3733 84.5461C92.7396 82.4499 96.566 82.4274 98.9071 84.5461L106.963 91.7588L111.368 87.8143C113.609 85.8083 114.263 82.9007 113.281 80.3537L78.5668 49.5195L74.816 52.8779C62.4054 63.99 42.3168 63.99 29.9062 52.8779C24.1163 47.6938 23.8898 39.3767 29.3524 33.9447V33.9672Z" fill="white"/>
</svg>
