<svg width="400" height="60" viewBox="0 0 400 60" fill="none" xmlns="http://www.w3.org/2000/svg">
<rect x="200" width="200" height="60" fill="#AC2D5D"/>
<path d="M245.291 38L248.607 20.9375H250.295L246.967 38H245.291ZM250.06 38L253.388 20.9375H255.064L251.736 38H250.06ZM256.494 27.4414H244.306V25.8125H256.494V27.4414ZM255.615 33.1953H243.416V31.5781H255.615V33.1953ZM267.027 22.4492L261.379 38H259.07L265.574 20.9375H267.062L267.027 22.4492ZM271.762 38L266.101 22.4492L266.066 20.9375H267.555L274.082 38H271.762ZM271.469 31.6836V33.5352H261.883V31.6836H271.469ZM288.447 32.5742H290.697C290.58 33.6523 290.271 34.6172 289.771 35.4688C289.271 36.3203 288.564 36.9961 287.65 37.4961C286.736 37.9883 285.596 38.2344 284.228 38.2344C283.228 38.2344 282.318 38.0469 281.498 37.6719C280.685 37.2969 279.986 36.7656 279.4 36.0781C278.814 35.3828 278.361 34.5508 278.041 33.582C277.728 32.6055 277.572 31.5195 277.572 30.3242V28.625C277.572 27.4297 277.728 26.3477 278.041 25.3789C278.361 24.4023 278.818 23.5664 279.412 22.8711C280.014 22.1758 280.736 21.6406 281.58 21.2656C282.424 20.8906 283.373 20.7031 284.428 20.7031C285.717 20.7031 286.807 20.9453 287.697 21.4297C288.588 21.9141 289.279 22.5859 289.771 23.4453C290.271 24.2969 290.58 25.2852 290.697 26.4102H288.447C288.338 25.6133 288.135 24.9297 287.838 24.3594C287.541 23.7812 287.119 23.3359 286.572 23.0234C286.025 22.7109 285.31 22.5547 284.428 22.5547C283.67 22.5547 283.002 22.6992 282.424 22.9883C281.853 23.2773 281.373 23.6875 280.982 24.2188C280.6 24.75 280.31 25.3867 280.115 26.1289C279.92 26.8711 279.822 27.6953 279.822 28.6016V30.3242C279.822 31.1602 279.908 31.9453 280.08 32.6797C280.26 33.4141 280.529 34.0586 280.889 34.6133C281.248 35.168 281.705 35.6055 282.26 35.9258C282.814 36.2383 283.471 36.3945 284.228 36.3945C285.189 36.3945 285.955 36.2422 286.525 35.9375C287.096 35.6328 287.525 35.1953 287.814 34.625C288.111 34.0547 288.322 33.3711 288.447 32.5742ZM306.316 36.2188V38H295.148V36.4414L300.738 30.2188C301.426 29.4531 301.957 28.8047 302.332 28.2734C302.715 27.7344 302.98 27.2539 303.129 26.832C303.285 26.4023 303.363 25.9648 303.363 25.5195C303.363 24.957 303.246 24.4492 303.012 23.9961C302.785 23.5352 302.449 23.168 302.004 22.8945C301.559 22.6211 301.02 22.4844 300.387 22.4844C299.629 22.4844 298.996 22.6328 298.488 22.9297C297.988 23.2188 297.613 23.625 297.363 24.1484C297.113 24.6719 296.988 25.2734 296.988 25.9531H294.82C294.82 24.9922 295.031 24.1133 295.453 23.3164C295.875 22.5195 296.5 21.8867 297.328 21.418C298.156 20.9414 299.176 20.7031 300.387 20.7031C301.465 20.7031 302.387 20.8945 303.152 21.2773C303.918 21.6523 304.504 22.1836 304.91 22.8711C305.324 23.5508 305.531 24.3477 305.531 25.2617C305.531 25.7617 305.445 26.2695 305.273 26.7852C305.109 27.293 304.879 27.8008 304.582 28.3086C304.293 28.8164 303.953 29.3164 303.562 29.8086C303.18 30.3008 302.77 30.7852 302.332 31.2617L297.762 36.2188H306.316ZM315.736 38H312.174L312.197 36.1602H315.736C316.955 36.1602 317.971 35.9062 318.783 35.3984C319.596 34.8828 320.205 34.1641 320.611 33.2422C321.025 32.3125 321.232 31.2266 321.232 29.9844V28.9414C321.232 27.9648 321.115 27.0977 320.881 26.3398C320.647 25.5742 320.303 24.9297 319.85 24.4062C319.397 23.875 318.842 23.4727 318.186 23.1992C317.537 22.9258 316.791 22.7891 315.947 22.7891H312.104V20.9375H315.947C317.065 20.9375 318.084 21.125 319.006 21.5C319.928 21.8672 320.721 22.4023 321.385 23.1055C322.057 23.8008 322.572 24.6445 322.932 25.6367C323.291 26.6211 323.471 27.7305 323.471 28.9648V29.9844C323.471 31.2188 323.291 32.332 322.932 33.3242C322.572 34.3086 322.053 35.1484 321.373 35.8438C320.701 36.5391 319.889 37.0742 318.936 37.4492C317.99 37.8164 316.924 38 315.736 38ZM313.381 20.9375V38H311.119V20.9375H313.381ZM330.969 29.8789L329.235 29.4336L330.09 20.9375H338.844V22.9414H331.93L331.414 27.582C331.727 27.4023 332.121 27.2344 332.598 27.0781C333.082 26.9219 333.637 26.8438 334.262 26.8438C335.051 26.8438 335.758 26.9805 336.383 27.2539C337.008 27.5195 337.539 27.9023 337.977 28.4023C338.422 28.9023 338.762 29.5039 338.996 30.207C339.231 30.9102 339.348 31.6953 339.348 32.5625C339.348 33.3828 339.235 34.1367 339.008 34.8242C338.789 35.5117 338.457 36.1133 338.012 36.6289C337.567 37.1367 337.004 37.5312 336.324 37.8125C335.652 38.0938 334.86 38.2344 333.945 38.2344C333.258 38.2344 332.606 38.1406 331.988 37.9531C331.379 37.7578 330.832 37.4648 330.348 37.0742C329.871 36.6758 329.481 36.1836 329.176 35.5977C328.879 35.0039 328.692 34.3086 328.613 33.5117H330.676C330.77 34.1523 330.957 34.6914 331.238 35.1289C331.52 35.5664 331.887 35.8984 332.34 36.125C332.801 36.3438 333.336 36.4531 333.945 36.4531C334.461 36.4531 334.918 36.3633 335.317 36.1836C335.715 36.0039 336.051 35.7461 336.324 35.4102C336.598 35.0742 336.805 34.668 336.945 34.1914C337.094 33.7148 337.168 33.1797 337.168 32.5859C337.168 32.0469 337.094 31.5469 336.945 31.0859C336.797 30.625 336.574 30.2227 336.277 29.8789C335.988 29.5352 335.633 29.2695 335.211 29.082C334.789 28.8867 334.305 28.7891 333.758 28.7891C333.031 28.7891 332.481 28.8867 332.106 29.082C331.738 29.2773 331.36 29.543 330.969 29.8789ZM348.826 38H345.264L345.287 36.1602H348.826C350.045 36.1602 351.061 35.9062 351.873 35.3984C352.686 34.8828 353.295 34.1641 353.701 33.2422C354.115 32.3125 354.322 31.2266 354.322 29.9844V28.9414C354.322 27.9648 354.205 27.0977 353.971 26.3398C353.737 25.5742 353.393 24.9297 352.94 24.4062C352.487 23.875 351.932 23.4727 351.276 23.1992C350.627 22.9258 349.881 22.7891 349.037 22.7891H345.194V20.9375H349.037C350.155 20.9375 351.174 21.125 352.096 21.5C353.018 21.8672 353.811 22.4023 354.475 23.1055C355.147 23.8008 355.662 24.6445 356.022 25.6367C356.381 26.6211 356.561 27.7305 356.561 28.9648V29.9844C356.561 31.2188 356.381 32.332 356.022 33.3242C355.662 34.3086 355.143 35.1484 354.463 35.8438C353.791 36.5391 352.979 37.0742 352.026 37.4492C351.08 37.8164 350.014 38 348.826 38ZM346.471 20.9375V38H344.209V20.9375H346.471Z" fill="#D9D9D9"/>
<rect width="200" height="60" fill="#D9D9D9"/>
<path d="M46.74 38L50.0564 20.9375H51.7439L48.4158 38H46.74ZM51.5095 38L54.8377 20.9375H56.5134L53.1853 38H51.5095ZM57.9431 27.4414H45.7556V25.8125H57.9431V27.4414ZM57.0642 33.1953H44.865V31.5781H57.0642V33.1953ZM66.7772 38H63.2147L63.2381 36.1602H66.7772C67.9959 36.1602 69.0116 35.9062 69.8241 35.3984C70.6366 34.8828 71.2459 34.1641 71.6522 33.2422C72.0663 32.3125 72.2733 31.2266 72.2733 29.9844V28.9414C72.2733 27.9648 72.1561 27.0977 71.9217 26.3398C71.6873 25.5742 71.3436 24.9297 70.8905 24.4062C70.4373 23.875 69.8827 23.4727 69.2264 23.1992C68.578 22.9258 67.8319 22.7891 66.9881 22.7891H63.1444V20.9375H66.9881C68.1053 20.9375 69.1248 21.125 70.0467 21.5C70.9686 21.8672 71.7616 22.4023 72.4256 23.1055C73.0975 23.8008 73.6131 24.6445 73.9725 25.6367C74.3319 26.6211 74.5116 27.7305 74.5116 28.9648V29.9844C74.5116 31.2188 74.3319 32.332 73.9725 33.3242C73.6131 34.3086 73.0936 35.1484 72.4139 35.8438C71.742 36.5391 70.9295 37.0742 69.9764 37.4492C69.0311 37.8164 67.9647 38 66.7772 38ZM64.4217 20.9375V38H62.16V20.9375H64.4217ZM81.4238 36.1836H81.6464C82.8964 36.1836 83.912 36.0078 84.6933 35.6562C85.4745 35.3047 86.0761 34.832 86.498 34.2383C86.9198 33.6445 87.2089 32.9766 87.3652 32.2344C87.5214 31.4844 87.5995 30.7148 87.5995 29.9258V27.3125C87.5995 26.5391 87.5097 25.8516 87.33 25.25C87.1581 24.6484 86.9159 24.1445 86.6034 23.7383C86.2988 23.332 85.9511 23.0234 85.5605 22.8125C85.1698 22.6016 84.7558 22.4961 84.3183 22.4961C83.8183 22.4961 83.3691 22.5977 82.9706 22.8008C82.58 22.9961 82.248 23.2734 81.9745 23.6328C81.7089 23.9922 81.5058 24.4141 81.3652 24.8984C81.2245 25.3828 81.1542 25.9102 81.1542 26.4805C81.1542 26.9883 81.2167 27.4805 81.3417 27.957C81.4667 28.4336 81.6581 28.8633 81.9159 29.2461C82.1738 29.6289 82.4941 29.9336 82.8769 30.1602C83.2675 30.3789 83.7245 30.4883 84.248 30.4883C84.7323 30.4883 85.1855 30.3945 85.6073 30.207C86.037 30.0117 86.4159 29.75 86.7441 29.4219C87.08 29.0859 87.3456 28.707 87.5409 28.2852C87.7441 27.8633 87.8613 27.4219 87.8925 26.9609H88.9238C88.9238 27.6094 88.7948 28.25 88.537 28.8828C88.287 29.5078 87.9355 30.0781 87.4823 30.5938C87.0292 31.1094 86.498 31.5234 85.8886 31.8359C85.2792 32.1406 84.6152 32.293 83.8964 32.293C83.0527 32.293 82.3222 32.1289 81.705 31.8008C81.0878 31.4727 80.58 31.0352 80.1816 30.4883C79.7909 29.9414 79.498 29.332 79.3027 28.6602C79.1152 27.9805 79.0214 27.293 79.0214 26.5977C79.0214 25.7852 79.1347 25.0234 79.3613 24.3125C79.5878 23.6016 79.9238 22.9766 80.3691 22.4375C80.8144 21.8906 81.3652 21.4648 82.0214 21.1602C82.6855 20.8555 83.4511 20.7031 84.3183 20.7031C85.2948 20.7031 86.1269 20.8984 86.8144 21.2891C87.5019 21.6797 88.0605 22.2031 88.4902 22.8594C88.9277 23.5156 89.248 24.2539 89.4511 25.0742C89.6542 25.8945 89.7558 26.7383 89.7558 27.6055V28.3906C89.7558 29.2734 89.6972 30.1719 89.58 31.0859C89.4706 31.9922 89.2558 32.8594 88.9355 33.6875C88.623 34.5156 88.1659 35.2578 87.5644 35.9141C86.9628 36.5625 86.1777 37.0781 85.2089 37.4609C84.248 37.8359 83.0605 38.0234 81.6464 38.0234H81.4238V36.1836ZM99.8672 38H96.3047L96.3281 36.1602H99.8672C101.086 36.1602 102.102 35.9062 102.914 35.3984C103.727 34.8828 104.336 34.1641 104.742 33.2422C105.156 32.3125 105.363 31.2266 105.363 29.9844V28.9414C105.363 27.9648 105.246 27.0977 105.012 26.3398C104.777 25.5742 104.434 24.9297 103.98 24.4062C103.527 23.875 102.973 23.4727 102.316 23.1992C101.668 22.9258 100.922 22.7891 100.078 22.7891H96.2344V20.9375H100.078C101.195 20.9375 102.215 21.125 103.137 21.5C104.059 21.8672 104.852 22.4023 105.516 23.1055C106.188 23.8008 106.703 24.6445 107.062 25.6367C107.422 26.6211 107.602 27.7305 107.602 28.9648V29.9844C107.602 31.2188 107.422 32.332 107.062 33.3242C106.703 34.3086 106.184 35.1484 105.504 35.8438C104.832 36.5391 104.02 37.0742 103.066 37.4492C102.121 37.8164 101.055 38 99.8672 38ZM97.5117 20.9375V38H95.25V20.9375H97.5117ZM114.514 36.1836H114.736C115.986 36.1836 117.002 36.0078 117.783 35.6562C118.565 35.3047 119.166 34.832 119.588 34.2383C120.01 33.6445 120.299 32.9766 120.455 32.2344C120.611 31.4844 120.69 30.7148 120.69 29.9258V27.3125C120.69 26.5391 120.6 25.8516 120.42 25.25C120.248 24.6484 120.006 24.1445 119.693 23.7383C119.389 23.332 119.041 23.0234 118.65 22.8125C118.26 22.6016 117.846 22.4961 117.408 22.4961C116.908 22.4961 116.459 22.5977 116.061 22.8008C115.67 22.9961 115.338 23.2734 115.065 23.6328C114.799 23.9922 114.596 24.4141 114.455 24.8984C114.315 25.3828 114.244 25.9102 114.244 26.4805C114.244 26.9883 114.307 27.4805 114.432 27.957C114.557 28.4336 114.748 28.8633 115.006 29.2461C115.264 29.6289 115.584 29.9336 115.967 30.1602C116.357 30.3789 116.815 30.4883 117.338 30.4883C117.822 30.4883 118.275 30.3945 118.697 30.207C119.127 30.0117 119.506 29.75 119.834 29.4219C120.17 29.0859 120.436 28.707 120.631 28.2852C120.834 27.8633 120.951 27.4219 120.982 26.9609H122.014C122.014 27.6094 121.885 28.25 121.627 28.8828C121.377 29.5078 121.025 30.0781 120.572 30.5938C120.119 31.1094 119.588 31.5234 118.979 31.8359C118.369 32.1406 117.705 32.293 116.986 32.293C116.143 32.293 115.412 32.1289 114.795 31.8008C114.178 31.4727 113.67 31.0352 113.272 30.4883C112.881 29.9414 112.588 29.332 112.393 28.6602C112.205 27.9805 112.111 27.293 112.111 26.5977C112.111 25.7852 112.225 25.0234 112.451 24.3125C112.678 23.6016 113.014 22.9766 113.459 22.4375C113.904 21.8906 114.455 21.4648 115.111 21.1602C115.775 20.8555 116.541 20.7031 117.408 20.7031C118.385 20.7031 119.217 20.8984 119.904 21.2891C120.592 21.6797 121.15 22.2031 121.58 22.8594C122.018 23.5156 122.338 24.2539 122.541 25.0742C122.744 25.8945 122.846 26.7383 122.846 27.6055V28.3906C122.846 29.2734 122.787 30.1719 122.67 31.0859C122.561 31.9922 122.346 32.8594 122.025 33.6875C121.713 34.5156 121.256 35.2578 120.654 35.9141C120.053 36.5625 119.268 37.0781 118.299 37.4609C117.338 37.8359 116.15 38.0234 114.736 38.0234H114.514V36.1836ZM132.957 38H129.395L129.418 36.1602H132.957C134.176 36.1602 135.192 35.9062 136.004 35.3984C136.817 34.8828 137.426 34.1641 137.832 33.2422C138.246 32.3125 138.453 31.2266 138.453 29.9844V28.9414C138.453 27.9648 138.336 27.0977 138.102 26.3398C137.867 25.5742 137.524 24.9297 137.07 24.4062C136.617 23.875 136.063 23.4727 135.406 23.1992C134.758 22.9258 134.012 22.7891 133.168 22.7891H129.324V20.9375H133.168C134.285 20.9375 135.305 21.125 136.227 21.5C137.149 21.8672 137.942 22.4023 138.606 23.1055C139.277 23.8008 139.793 24.6445 140.152 25.6367C140.512 26.6211 140.692 27.7305 140.692 28.9648V29.9844C140.692 31.2188 140.512 32.332 140.152 33.3242C139.793 34.3086 139.274 35.1484 138.594 35.8438C137.922 36.5391 137.11 37.0742 136.156 37.4492C135.211 37.8164 134.145 38 132.957 38ZM130.602 20.9375V38H128.34V20.9375H130.602ZM147.604 36.1836H147.826C149.076 36.1836 150.092 36.0078 150.873 35.6562C151.655 35.3047 152.256 34.832 152.678 34.2383C153.1 33.6445 153.389 32.9766 153.545 32.2344C153.701 31.4844 153.78 30.7148 153.78 29.9258V27.3125C153.78 26.5391 153.69 25.8516 153.51 25.25C153.338 24.6484 153.096 24.1445 152.783 23.7383C152.479 23.332 152.131 23.0234 151.74 22.8125C151.35 22.6016 150.936 22.4961 150.498 22.4961C149.998 22.4961 149.549 22.5977 149.151 22.8008C148.76 22.9961 148.428 23.2734 148.155 23.6328C147.889 23.9922 147.686 24.4141 147.545 24.8984C147.405 25.3828 147.334 25.9102 147.334 26.4805C147.334 26.9883 147.397 27.4805 147.522 27.957C147.647 28.4336 147.838 28.8633 148.096 29.2461C148.354 29.6289 148.674 29.9336 149.057 30.1602C149.447 30.3789 149.905 30.4883 150.428 30.4883C150.912 30.4883 151.365 30.3945 151.787 30.207C152.217 30.0117 152.596 29.75 152.924 29.4219C153.26 29.0859 153.526 28.707 153.721 28.2852C153.924 27.8633 154.041 27.4219 154.072 26.9609H155.104C155.104 27.6094 154.975 28.25 154.717 28.8828C154.467 29.5078 154.115 30.0781 153.662 30.5938C153.209 31.1094 152.678 31.5234 152.069 31.8359C151.459 32.1406 150.795 32.293 150.076 32.293C149.233 32.293 148.502 32.1289 147.885 31.8008C147.268 31.4727 146.76 31.0352 146.362 30.4883C145.971 29.9414 145.678 29.332 145.483 28.6602C145.295 27.9805 145.201 27.293 145.201 26.5977C145.201 25.7852 145.315 25.0234 145.541 24.3125C145.768 23.6016 146.104 22.9766 146.549 22.4375C146.994 21.8906 147.545 21.4648 148.201 21.1602C148.865 20.8555 149.631 20.7031 150.498 20.7031C151.475 20.7031 152.307 20.8984 152.994 21.2891C153.682 21.6797 154.24 22.2031 154.67 22.8594C155.108 23.5156 155.428 24.2539 155.631 25.0742C155.834 25.8945 155.936 26.7383 155.936 27.6055V28.3906C155.936 29.2734 155.877 30.1719 155.76 31.0859C155.651 31.9922 155.436 32.8594 155.115 33.6875C154.803 34.5156 154.346 35.2578 153.744 35.9141C153.143 36.5625 152.358 37.0781 151.389 37.4609C150.428 37.8359 149.24 38.0234 147.826 38.0234H147.604V36.1836Z" fill="#222222"/>
</svg>
